<mxfile host="app.diagrams.net" modified="2021-10-18T21:08:01.611Z" agent="5.0 (Windows NT 10.0; Win64; x64) AppleWebKit/537.36 (KHTML, like Gecko) Chrome/94.0.4606.81 Safari/537.36" etag="X-YoSJc8RHkmIbeElYcO" version="15.5.5" type="github">
  <diagram id="bvLMRxC2M_8ToCppKurl" name="Page-1">
    <mxGraphModel dx="782" dy="1121" grid="1" gridSize="10" guides="1" tooltips="1" connect="1" arrows="1" fold="1" page="1" pageScale="1" pageWidth="850" pageHeight="1100" math="0" shadow="0">
      <root>
        <mxCell id="0" />
        <mxCell id="1" parent="0" />
        <mxCell id="z-EMiZAbtMkfbZiVDpRd-1" value="" style="rounded=1;whiteSpace=wrap;html=1;strokeColor=#000000;arcSize=13;" vertex="1" parent="1">
          <mxGeometry x="190" y="110" width="490" height="590" as="geometry" />
        </mxCell>
        <mxCell id="z-EMiZAbtMkfbZiVDpRd-2" value="&lt;h1&gt;Просмотр страницы электронной энциклопедии&lt;/h1&gt;" style="text;html=1;strokeColor=none;fillColor=none;spacing=5;spacingTop=-20;whiteSpace=wrap;overflow=hidden;rounded=0;" vertex="1" parent="1">
          <mxGeometry x="220" y="120" width="420" height="60" as="geometry" />
        </mxCell>
        <mxCell id="z-EMiZAbtMkfbZiVDpRd-3" value="предусловие: адрес страницы известен" style="text;html=1;strokeColor=none;fillColor=none;align=left;verticalAlign=middle;whiteSpace=wrap;rounded=0;fontSize=14;" vertex="1" parent="1">
          <mxGeometry x="200" y="180" width="430" height="30" as="geometry" />
        </mxCell>
        <mxCell id="z-EMiZAbtMkfbZiVDpRd-4" value="постусловие: нет" style="text;html=1;strokeColor=none;fillColor=none;align=left;verticalAlign=middle;whiteSpace=wrap;rounded=0;fontSize=14;" vertex="1" parent="1">
          <mxGeometry x="200" y="210" width="430" height="30" as="geometry" />
        </mxCell>
        <mxCell id="z-EMiZAbtMkfbZiVDpRd-5" style="edgeStyle=orthogonalEdgeStyle;rounded=0;orthogonalLoop=1;jettySize=auto;html=1;fontSize=14;strokeColor=#000000;endArrow=open;endFill=0;startSize=6;endSize=12;" edge="1" parent="1" source="z-EMiZAbtMkfbZiVDpRd-6" target="z-EMiZAbtMkfbZiVDpRd-8">
          <mxGeometry relative="1" as="geometry" />
        </mxCell>
        <mxCell id="z-EMiZAbtMkfbZiVDpRd-6" value="" style="ellipse;whiteSpace=wrap;html=1;aspect=fixed;fontSize=14;strokeColor=#000000;align=left;fillColor=#000000;" vertex="1" parent="1">
          <mxGeometry x="422.5" y="240" width="25" height="25" as="geometry" />
        </mxCell>
        <mxCell id="z-EMiZAbtMkfbZiVDpRd-16" style="edgeStyle=orthogonalEdgeStyle;rounded=0;orthogonalLoop=1;jettySize=auto;html=1;endArrow=open;endFill=0;endSize=12;" edge="1" parent="1" source="z-EMiZAbtMkfbZiVDpRd-8" target="z-EMiZAbtMkfbZiVDpRd-14">
          <mxGeometry relative="1" as="geometry" />
        </mxCell>
        <mxCell id="z-EMiZAbtMkfbZiVDpRd-8" value="Запросить страницу электронной энциклопедии" style="rounded=1;whiteSpace=wrap;html=1;fontSize=14;strokeColor=#000000;align=center;" vertex="1" parent="1">
          <mxGeometry x="322.5" y="300" width="225" height="40" as="geometry" />
        </mxCell>
        <mxCell id="z-EMiZAbtMkfbZiVDpRd-13" style="edgeStyle=orthogonalEdgeStyle;rounded=0;orthogonalLoop=1;jettySize=auto;html=1;fontSize=14;endArrow=open;endFill=0;startSize=6;endSize=12;strokeColor=#000000;" edge="1" parent="1" source="z-EMiZAbtMkfbZiVDpRd-14" target="z-EMiZAbtMkfbZiVDpRd-15">
          <mxGeometry relative="1" as="geometry" />
        </mxCell>
        <mxCell id="z-EMiZAbtMkfbZiVDpRd-14" value="Отправить запрошенную страницу" style="rounded=1;whiteSpace=wrap;html=1;fontSize=14;strokeColor=#000000;align=center;" vertex="1" parent="1">
          <mxGeometry x="422.5" y="390" width="225" height="40" as="geometry" />
        </mxCell>
        <mxCell id="z-EMiZAbtMkfbZiVDpRd-15" value="" style="ellipse;html=1;shape=endState;fillColor=#000000;strokeColor=#000000;fontSize=14;align=center;" vertex="1" parent="1">
          <mxGeometry x="420" y="610" width="30" height="30" as="geometry" />
        </mxCell>
        <mxCell id="z-EMiZAbtMkfbZiVDpRd-18" style="edgeStyle=orthogonalEdgeStyle;rounded=0;orthogonalLoop=1;jettySize=auto;html=1;endArrow=none;endFill=0;dashed=1;" edge="1" parent="1" source="z-EMiZAbtMkfbZiVDpRd-17" target="z-EMiZAbtMkfbZiVDpRd-14">
          <mxGeometry relative="1" as="geometry" />
        </mxCell>
        <mxCell id="z-EMiZAbtMkfbZiVDpRd-17" value="&quot;localPrecondition&quot;&lt;br&gt;запрошенная страница существует" style="shape=note2;boundedLbl=1;whiteSpace=wrap;html=1;size=11;verticalAlign=top;align=center;" vertex="1" parent="1">
          <mxGeometry x="210" y="373.75" width="160" height="72.5" as="geometry" />
        </mxCell>
      </root>
    </mxGraphModel>
  </diagram>
</mxfile>
